<svg width="70" height="63" viewBox="0 0 70 63" fill="none" xmlns="http://www.w3.org/2000/svg">
<path d="M37.5 15C49.9264 15 60 25.0736 60 37.5C60 49.9264 49.9264 60 37.5 60C25.0736 60 15 49.9264 15 37.5C15 25.0736 25.0736 15 37.5 15Z" stroke="#C84314" stroke-width="6"/>
<path d="M57.0931 54.8181L57.3807 54.4736C58.5637 53.0675 58.4036 50.9392 57.0269 49.7237L37.1993 32.1944C33.7288 29.1263 34.229 26.8736 34.3504 23.8285C34.5003 20.0479 34.1955 17.4106 28.6095 12.5103C28.6095 12.5103 22.207 6.84849 18.585 3.64625C15.5586 0.970651 11.6649 5.39255 14.7625 8.12948L25.2613 17.4129C25.9319 18.0057 26.0091 19.0427 25.4355 19.7282L25.1568 20.0584C24.58 20.7458 23.5711 20.821 22.9004 20.2264L12.3519 10.9023C10.6236 9.37288 9.10735 10.1064 8.1494 11.2461C7.18988 12.3877 6.70802 14.0373 8.43956 15.5666L18.9864 24.8909C19.6569 25.4837 19.7342 26.5207 19.1589 27.2063L18.8819 27.5364C18.305 28.2238 17.296 28.2972 16.6238 27.7046L6.12512 18.4229C3.02736 15.6842 -0.655874 20.2922 2.37213 22.9676C5.99423 26.1714 12.3966 31.8316 12.3966 31.8316C17.9458 36.7741 20.5318 36.6926 24.1537 35.9783C27.0696 35.4038 29.1645 34.5657 32.635 37.6338L52.4625 55.163C53.8391 56.3785 55.9117 56.2241 57.0931 54.8181Z" fill="#FFCC00"/>
<path d="M69.6034 0.322562C69.5598 0.19135 69.4292 0.0601386 69.2985 0.0164014C69.1679 -0.0273357 68.9937 0.0164014 68.8631 0.147613L37.9446 31.201C37.901 31.2448 37.901 31.2448 37.901 31.2885C37.8575 31.2885 37.8139 31.3322 37.8139 31.3322L19.0016 50.2267C18.3484 50.8827 18 51.7138 18 52.6322C18 53.5507 18.3484 54.3817 18.958 55.0378C19.6112 55.6501 20.4822 56 21.3531 56C22.2241 56 23.0079 55.6938 23.6176 55.1253C23.6611 55.1253 23.7482 55.0815 23.7918 55.0378L42.4299 36.3183L48.8749 42.7914C48.962 42.8788 49.0927 42.9226 49.1797 42.9226C49.2668 42.9226 49.3975 42.8788 49.4846 42.7914C62.3745 29.8452 67.1647 19.0421 68.9066 12.2191C70.8227 4.78375 69.6469 0.49751 69.6034 0.322562Z" fill="#FFCC00"/>
<circle cx="38" cy="38" r="13" fill="white" stroke="#C84314" stroke-width="6"/>
<circle cx="38" cy="38" r="5" fill="#C84314"/>
</svg>
