<svg width="830" height="685" viewBox="0 0 830 685" fill="none" xmlns="http://www.w3.org/2000/svg">
<path d="M320.535 193.956C320.535 193.956 334.39 298.394 313.075 310.122C291.76 321.85 439.898 322.911 439.898 322.911C439.898 322.911 406.86 232.323 421.78 204.611L320.535 193.956Z" fill="#FFB9B9"/>
<path d="M375.422 249.462C416.035 249.462 448.958 216.539 448.958 175.926C448.958 135.313 416.035 102.39 375.422 102.39C334.809 102.39 301.886 135.313 301.886 175.926C301.886 216.539 334.809 249.462 375.422 249.462Z" fill="#FFB9B9"/>
<path d="M548.07 323.439L535.75 379.539L509.7 498.229L508.92 504.729L499.93 579.979L493.95 629.969L489.94 663.549C465.56 676.079 447.89 684.729 447.89 684.729C447.89 684.729 446.37 677.109 443.92 667.359C426.81 672.489 395.15 680.999 368.32 682.699C378.09 693.589 227.2 416.579 221.41 379.539C216.75 349.729 213.25 324.539 212.51 319.179C212.41 318.479 212.36 318.119 212.36 318.119L324.79 268.439C332.78 286.969 370.09 292.539 370.09 292.539C401 290.409 425.23 274.109 425.23 274.109L548.07 323.439Z" fill="#FFCC00"/>
<path d="M314.246 106.368L300.497 100.868C300.497 100.868 329.246 69.217 369.244 71.968L357.994 59.583C357.994 59.583 385.494 48.574 410.494 77.473C423.635 92.664 438.84 110.521 448.319 130.636H463.044L456.898 144.168L478.407 157.7L456.33 155.269C457.646 162.679 457.848 170.244 456.93 177.714C455.983 185.187 452.17 191.999 446.296 196.714C446.296 196.714 429.244 161.414 429.244 155.914V169.675C429.244 169.675 415.495 157.29 415.495 149.033L407.995 158.666L404.245 143.529L357.997 158.666L365.497 146.281L336.748 150.409L347.998 135.272C347.998 135.272 315.498 153.162 314.249 168.299C313 183.436 303.487 197.78 303.487 197.78C303.487 197.78 277.997 127.01 314.246 106.368Z" fill="#090814"/>
<path d="M628 581.349C620.51 589.469 601.95 601.699 579.45 614.939C571.08 619.859 562.17 624.929 553.08 629.969C531.39 641.999 508.68 653.919 489.94 663.549C465.56 676.079 447.89 684.729 447.89 684.729C447.89 684.729 446.37 677.109 443.92 667.359C440.64 654.309 435.7 637.439 430.55 629.969C430.37 629.709 430.19 629.469 430.01 629.229C428.51 627.259 427 626.109 425.51 626.109L499.93 579.979L532.09 560.039L508.92 504.729L479.86 435.349L497.4 379.539L515.03 323.439H548.07C548.07 323.439 559.01 347.319 573 380.619C575.09 385.599 577.25 390.789 579.45 396.149C608.23 466.149 644.113 563.894 628 581.349Z" fill="#FFCC00"/>
<path d="M295.49 629.309C292.776 629.299 290.066 629.519 287.39 629.969C264.4 633.919 257.62 654.729 255.69 668.669C255.072 672.926 254.838 677.23 254.99 681.529L234.68 665.909L227.28 660.219C209.47 654.009 193.6 642.979 179.84 629.969C167.903 618.483 157.195 605.784 147.89 592.079C138.622 578.571 130.36 564.399 123.17 549.679C121.164 545.571 120.086 541.073 120.011 536.502C119.937 531.931 120.869 527.4 122.74 523.229L147.89 467.179L184.65 385.259C184.917 383.309 185.213 381.402 185.54 379.539C192.83 337.739 212.36 319.179 212.36 319.179H227.28L237.26 379.539L249.66 454.529L240.97 482.869L220.89 548.319L240.08 569.159L295.49 629.309Z" fill="#FFCC00"/>
<path d="M603.15 663.374V669.444C603.153 671.11 602.845 672.762 602.24 674.314C601.971 675.006 601.647 675.675 601.27 676.314C600.078 678.314 598.387 679.971 596.362 681.121C594.337 682.271 592.049 682.875 589.72 682.874H143.17C140.841 682.875 138.553 682.271 136.528 681.121C134.503 679.971 132.812 678.314 131.62 676.314C131.243 675.675 130.919 675.006 130.65 674.314C130.045 672.762 129.737 671.11 129.74 669.444V663.374C129.739 661.61 130.087 659.864 130.761 658.234C131.436 656.604 132.425 655.124 133.672 653.876C134.92 652.629 136.4 651.64 138.03 650.965C139.66 650.29 141.406 649.943 143.17 649.944H168.913V647.114C168.913 647.04 168.927 646.967 168.955 646.899C168.983 646.831 169.025 646.77 169.077 646.718C169.129 646.666 169.191 646.624 169.259 646.596C169.327 646.568 169.399 646.554 169.473 646.554H182.903C182.977 646.554 183.049 646.568 183.117 646.596C183.185 646.624 183.247 646.666 183.299 646.718C183.351 646.77 183.393 646.831 183.421 646.899C183.449 646.967 183.463 647.04 183.463 647.114V649.944H191.853V647.114C191.853 647.04 191.867 646.967 191.895 646.899C191.923 646.831 191.965 646.77 192.017 646.718C192.069 646.666 192.131 646.624 192.199 646.596C192.267 646.568 192.339 646.554 192.413 646.554H205.843C205.917 646.554 205.989 646.568 206.057 646.596C206.125 646.624 206.187 646.666 206.239 646.718C206.291 646.77 206.333 646.831 206.361 646.899C206.389 646.967 206.403 647.04 206.403 647.114V649.944H214.803V647.114C214.803 647.04 214.817 646.967 214.845 646.899C214.873 646.831 214.915 646.77 214.967 646.718C215.019 646.666 215.081 646.624 215.149 646.596C215.217 646.568 215.289 646.554 215.363 646.554H228.793C228.867 646.554 228.939 646.568 229.007 646.596C229.075 646.624 229.137 646.666 229.189 646.718C229.241 646.77 229.283 646.831 229.311 646.899C229.339 646.967 229.353 647.04 229.353 647.114V649.944H237.743V647.114C237.743 647.04 237.757 646.967 237.785 646.899C237.813 646.831 237.855 646.77 237.907 646.718C237.959 646.666 238.021 646.624 238.089 646.596C238.157 646.568 238.229 646.554 238.303 646.554H251.733C251.807 646.554 251.879 646.568 251.947 646.596C252.015 646.624 252.077 646.666 252.129 646.718C252.181 646.77 252.223 646.831 252.251 646.899C252.279 646.967 252.293 647.04 252.293 647.114V649.944H260.683V647.114C260.683 647.04 260.697 646.967 260.725 646.899C260.753 646.831 260.795 646.77 260.847 646.718C260.899 646.666 260.961 646.624 261.029 646.596C261.097 646.568 261.169 646.554 261.243 646.554H274.673C274.747 646.554 274.819 646.568 274.887 646.596C274.955 646.624 275.017 646.666 275.069 646.718C275.121 646.77 275.163 646.831 275.191 646.899C275.219 646.967 275.233 647.04 275.233 647.114V649.944H283.633V647.114C283.633 647.04 283.647 646.967 283.675 646.899C283.703 646.831 283.745 646.77 283.797 646.718C283.849 646.666 283.911 646.624 283.979 646.596C284.047 646.568 284.119 646.554 284.193 646.554H297.623C297.697 646.554 297.769 646.568 297.837 646.596C297.905 646.624 297.967 646.666 298.019 646.718C298.071 646.77 298.113 646.831 298.141 646.899C298.169 646.967 298.183 647.04 298.183 647.114V649.944H306.573V647.114C306.573 647.04 306.587 646.967 306.615 646.899C306.643 646.831 306.685 646.77 306.737 646.718C306.789 646.666 306.851 646.624 306.919 646.596C306.987 646.568 307.059 646.554 307.133 646.554H412.333C412.407 646.554 412.479 646.568 412.547 646.596C412.615 646.624 412.677 646.666 412.729 646.718C412.781 646.77 412.823 646.831 412.851 646.899C412.879 646.967 412.893 647.04 412.893 647.114V649.944H421.293V647.114C421.293 647.04 421.307 646.967 421.335 646.899C421.363 646.831 421.405 646.77 421.457 646.718C421.509 646.666 421.571 646.624 421.639 646.596C421.707 646.568 421.779 646.554 421.853 646.554H435.283C435.431 646.556 435.573 646.615 435.677 646.72C435.782 646.824 435.841 646.966 435.843 647.114V649.944H444.233V647.114C444.233 647.04 444.247 646.967 444.275 646.899C444.303 646.831 444.345 646.77 444.397 646.718C444.449 646.666 444.511 646.624 444.579 646.596C444.647 646.568 444.719 646.554 444.793 646.554H458.223C458.297 646.554 458.369 646.568 458.437 646.596C458.505 646.624 458.567 646.666 458.619 646.718C458.671 646.77 458.713 646.831 458.741 646.899C458.769 646.967 458.783 647.04 458.783 647.114V649.944H467.173V647.114C467.173 647.04 467.187 646.967 467.215 646.899C467.243 646.831 467.285 646.77 467.337 646.718C467.389 646.666 467.451 646.624 467.519 646.596C467.587 646.568 467.659 646.554 467.733 646.554H481.163C481.237 646.554 481.309 646.568 481.377 646.596C481.445 646.624 481.507 646.666 481.559 646.718C481.611 646.77 481.653 646.831 481.681 646.899C481.709 646.967 481.723 647.04 481.723 647.114V649.944H490.123V647.114C490.123 647.04 490.137 646.967 490.165 646.899C490.193 646.831 490.235 646.77 490.287 646.718C490.339 646.666 490.401 646.624 490.469 646.596C490.537 646.568 490.609 646.554 490.683 646.554H504.113C504.26 646.556 504.4 646.616 504.503 646.721C504.606 646.825 504.664 646.967 504.663 647.114V649.944H513.063V647.114C513.063 647.04 513.077 646.967 513.105 646.899C513.133 646.831 513.175 646.77 513.227 646.718C513.279 646.666 513.341 646.624 513.409 646.596C513.477 646.568 513.549 646.554 513.623 646.554H527.053C527.127 646.554 527.199 646.568 527.267 646.596C527.335 646.624 527.397 646.666 527.449 646.718C527.501 646.77 527.543 646.831 527.571 646.899C527.599 646.967 527.613 647.04 527.613 647.114V649.944H536.003V647.114C536.003 647.04 536.017 646.967 536.045 646.899C536.073 646.831 536.115 646.77 536.167 646.718C536.219 646.666 536.281 646.624 536.349 646.596C536.417 646.568 536.489 646.554 536.563 646.554H549.993C550.067 646.554 550.139 646.568 550.207 646.596C550.275 646.624 550.337 646.666 550.389 646.718C550.441 646.77 550.483 646.831 550.511 646.899C550.539 646.967 550.553 647.04 550.553 647.114V649.944H589.723C591.487 649.943 593.233 650.29 594.863 650.965C596.493 651.64 597.973 652.629 599.221 653.876C600.468 655.124 601.457 656.604 602.132 658.234C602.807 659.864 603.154 661.61 603.153 663.374H603.15Z" fill="#090814"/>
<path d="M733 682.729H0V684.729H733V682.729Z" fill="#CCCCCC"/>
<path d="M567.194 407.744H400.751V404.313H325.279V407.744H158.15C155.165 407.744 152.302 408.93 150.191 411.041C148.08 413.151 146.893 416.014 146.892 418.999V646.914C146.892 648.393 147.183 649.857 147.749 651.223C148.315 652.589 149.144 653.83 150.19 654.875C151.235 655.921 152.476 656.75 153.842 657.316C155.208 657.882 156.673 658.173 158.151 658.173H567.194C568.673 658.173 570.137 657.882 571.503 657.316C572.869 656.75 574.11 655.921 575.155 654.875C576.201 653.83 577.03 652.589 577.596 651.223C578.162 649.857 578.453 648.393 578.453 646.914V418.999C578.453 417.52 578.162 416.056 577.596 414.69C577.03 413.324 576.201 412.083 575.155 411.038C574.11 409.992 572.869 409.163 571.503 408.597C570.137 408.031 568.673 407.74 567.194 407.74V407.744Z" fill="#090814"/>
<path d="M363 512.314C376.807 512.314 388 501.121 388 487.314C388 473.507 376.807 462.314 363 462.314C349.193 462.314 338 473.507 338 487.314C338 501.121 349.193 512.314 363 512.314Z" stroke="#D0CDE1" stroke-width="2" stroke-miterlimit="10"/>
<path d="M355 521.314C368.807 521.314 380 510.121 380 496.314C380 482.507 368.807 471.314 355 471.314C341.193 471.314 330 482.507 330 496.314C330 510.121 341.193 521.314 355 521.314Z" fill="#F2F2F2"/>
<path d="M90.2861 196.571C114.85 196.571 134.763 176.658 134.763 152.094C134.763 127.53 114.85 107.617 90.2861 107.617C65.7221 107.617 45.8091 127.53 45.8091 152.094C45.8091 176.658 65.7221 196.571 90.2861 196.571Z" fill="#F2F2F2"/>
<path d="M105.786 99.241C101.759 98.7288 97.6832 98.7288 93.6561 99.241C84.6846 100.419 76.2393 104.147 69.3222 109.98C62.4051 115.814 57.3065 123.509 54.6311 132.153C53.4145 136.092 52.7255 140.176 52.5821 144.296C52.5621 144.869 52.5481 145.448 52.5481 146.028C52.5605 158.535 57.5344 170.526 66.3782 179.37C75.222 188.214 87.2131 193.188 99.7201 193.2C100.72 193.2 101.728 193.166 102.72 193.106C105.045 192.96 107.357 192.64 109.634 192.149C120.51 189.81 130.21 183.703 137.02 174.906C143.83 166.109 147.312 155.189 146.852 144.073C146.392 132.958 142.018 122.363 134.504 114.16C126.99 105.956 116.818 100.672 105.786 99.24V99.241ZM114.486 189.414H114.479C110.68 190.71 106.726 191.496 102.72 191.752C101.729 191.819 100.725 191.852 99.7201 191.852C87.5724 191.836 75.9269 187.003 67.3376 178.413C58.7482 169.823 53.9162 158.177 53.9011 146.029C53.9011 145.449 53.9141 144.87 53.9351 144.297C54.2516 135.953 56.842 127.854 61.4266 120.875C66.0112 113.896 72.4156 108.302 79.9479 104.698C87.4802 101.094 95.8542 99.6165 104.165 100.425C112.476 101.234 120.408 104.299 127.104 109.287C133.8 114.276 139.006 121 142.158 128.732C145.311 136.464 146.291 144.911 144.993 153.159C143.694 161.408 140.167 169.145 134.791 175.535C129.415 181.924 122.396 186.723 114.491 189.414H114.486Z" fill="#090814"/>
<path d="M100.395 102.9H99.0469V112.334H100.395V102.9Z" fill="#090814"/>
<path d="M69.7003 115.056L68.7471 116.009L75.4179 122.68L76.3711 121.727L69.7003 115.056Z" fill="#090814"/>
<path d="M56.5911 145.355V146.703H66.0251V145.355H56.5911Z" fill="#090814"/>
<path d="M68.7458 176.048L69.699 177.001L76.3698 170.33L75.4166 169.377L68.7458 176.048Z" fill="#090814"/>
<path d="M123.068 121.726L124.021 122.679L130.692 116.008L129.739 115.055L123.068 121.726Z" fill="#090814"/>
<path d="M133.414 145.355V146.703H142.848V145.355H133.414Z" fill="#090814"/>
<path d="M124.023 169.377L123.07 170.33L129.741 177.001L130.694 176.048L124.023 169.377Z" fill="#090814"/>
<path d="M100.395 179.723H99.0469V189.157H100.395V179.723Z" fill="#090814"/>
<path d="M101.742 143.334C101.159 142.897 100.45 142.66 99.7205 142.66C98.9915 142.66 98.2822 142.897 97.699 143.334C97.2996 143.637 96.9707 144.023 96.735 144.466C96.4364 145.036 96.3072 145.68 96.3626 146.321C96.4181 146.962 96.6559 147.573 97.048 148.084C97.4401 148.594 97.9701 148.981 98.5753 149.2C99.1805 149.418 99.8356 149.459 100.463 149.317C101.091 149.175 101.665 148.857 102.117 148.399C102.569 147.941 102.881 147.364 103.016 146.734C103.15 146.105 103.102 145.451 102.876 144.848C102.65 144.245 102.257 143.72 101.742 143.334ZM99.72 148.051C99.1843 148.049 98.6709 147.836 98.292 147.457C97.9131 147.078 97.6996 146.565 97.698 146.029C97.7005 145.62 97.8248 145.221 98.055 144.883C98.2524 144.597 98.5204 144.366 98.8329 144.214C99.1454 144.062 99.492 143.993 99.839 144.014C100.186 144.035 100.522 144.145 100.814 144.333C101.106 144.522 101.344 144.783 101.506 145.09C101.668 145.398 101.747 145.743 101.737 146.09C101.727 146.438 101.627 146.777 101.447 147.074C101.267 147.372 101.014 147.618 100.711 147.789C100.408 147.96 100.067 148.05 99.719 148.05L99.72 148.051Z" fill="#090814"/>
<path d="M105.784 87.4H93.6541V99.53H105.784V87.4Z" fill="#090814"/>
<path d="M99.72 89.423C108.652 89.423 115.893 86.8585 115.893 83.695C115.893 80.5316 108.652 77.967 99.72 77.967C90.7879 77.967 83.547 80.5316 83.547 83.695C83.547 86.8585 90.7879 89.423 99.72 89.423Z" fill="#090814"/>
<path d="M101.741 120.42H97.698V143.332H101.741V120.42Z" fill="#090814"/>
<path d="M611.018 168.007C607.739 154.234 608.286 140.668 613.901 127.378C613.96 126.556 614.343 125.79 614.966 125.25C615.589 124.71 616.4 124.439 617.223 124.496L647.907 126.673C648.729 126.732 649.494 127.116 650.034 127.738C650.574 128.361 650.845 129.173 650.788 129.995L647.904 170.625C647.845 171.447 647.462 172.213 646.839 172.753C646.216 173.293 645.404 173.564 644.582 173.507L613.904 171.329C613.081 171.271 612.315 170.888 611.773 170.265C611.232 169.642 610.96 168.83 611.018 168.007Z" fill="#F2F2F2"/>
<path d="M614.241 155.903C611.617 149.116 613.295 139.782 616.094 129.783C616.149 129.013 616.508 128.296 617.091 127.789C617.674 127.283 618.435 127.029 619.205 127.083L645.575 128.954C646.345 129.009 647.062 129.368 647.569 129.951C648.075 130.534 648.329 131.295 648.275 132.065L645.71 168.219C645.655 168.989 645.296 169.706 644.713 170.212C644.13 170.719 643.369 170.973 642.599 170.919L626.263 169.76C622.833 169.513 619.641 167.915 617.387 165.317C615.134 162.719 614.001 159.334 614.241 155.903Z" fill="white"/>
<path d="M632.498 157.674L630.082 157.259C630.453 156.383 630.667 155.449 630.715 154.499C631.096 149.414 631.135 144.281 631.338 139.185C631.333 138.999 631.274 138.818 631.168 138.664C631.062 138.511 630.915 138.391 630.742 138.32C630.57 138.248 630.381 138.228 630.198 138.262C630.014 138.296 629.845 138.382 629.709 138.51L623.64 143.537C622.693 144.321 624.05 145.665 624.99 144.887L629.346 141.279C629.213 144.618 629.079 147.956 628.946 151.295C628.882 152.895 629.077 154.843 628.421 156.35C628.332 156.553 628.214 156.743 628.073 156.915L625.398 156.455C624.757 156.345 623.942 156.88 624.224 157.629C624.377 157.997 624.603 158.33 624.888 158.607C625.174 158.885 625.513 159.101 625.885 159.243C626.257 159.384 626.655 159.449 627.052 159.432C627.45 159.415 627.84 159.317 628.199 159.144C628.337 159.083 628.471 159.012 628.599 158.932L631.999 159.516C633.192 159.721 633.709 157.882 632.498 157.674Z" fill="#FFCC00"/>
<path d="M763.23 219.683C760.141 206.711 760.656 193.935 765.945 181.418C766.001 180.644 766.362 179.923 766.948 179.414C767.535 178.905 768.3 178.65 769.074 178.704L797.974 180.755C798.749 180.811 799.469 181.172 799.978 181.758C800.487 182.345 800.742 183.109 800.688 183.884L797.973 222.149C797.917 222.924 797.557 223.644 796.97 224.153C796.383 224.662 795.619 224.917 794.844 224.863L765.944 222.812C765.17 222.756 764.449 222.395 763.94 221.809C763.431 221.222 763.176 220.458 763.23 219.683Z" fill="#F2F2F2"/>
<path d="M766.263 208.283C763.791 201.891 765.372 193.1 768.009 183.683C768.061 182.958 768.399 182.283 768.948 181.806C769.498 181.33 770.214 181.09 770.939 181.141L795.775 182.903C796.5 182.955 797.175 183.293 797.652 183.842C798.129 184.391 798.368 185.107 798.317 185.833L795.901 219.884C795.849 220.609 795.511 221.284 794.962 221.761C794.412 222.237 793.696 222.477 792.971 222.426L777.586 221.334C774.355 221.101 771.348 219.597 769.226 217.15C767.103 214.703 766.037 211.514 766.263 208.283Z" fill="white"/>
<path d="M782.476 201.79C782.806 201.636 783.119 201.446 783.408 201.225C784.178 200.59 784.747 199.745 785.047 198.793C785.346 197.841 785.363 196.822 785.095 195.861C783.93 191.58 778.809 191.554 775.273 192.069C774.132 192.235 774.617 193.969 775.751 193.803C778.134 193.456 781.874 193.175 783.151 195.778C783.443 196.389 783.547 197.074 783.45 197.744C783.353 198.415 783.058 199.041 782.604 199.544C782.061 200.089 781.346 200.429 780.581 200.506C779.84 200.184 779.035 200.034 778.227 200.067C777.394 200.106 776.927 201.318 777.773 201.742C778.519 202.114 779.34 202.308 780.173 202.309C780.865 202.643 781.442 203.173 781.834 203.834C782.225 204.495 782.413 205.256 782.373 206.023C782.213 207.079 781.639 208.029 780.779 208.662C779.919 209.296 778.842 209.562 777.786 209.402H777.764C776.634 209.175 776.151 210.907 777.286 211.136C778.809 211.423 780.383 211.093 781.663 210.219C782.942 209.345 783.822 207.999 784.109 206.476C784.124 206.393 784.138 206.311 784.15 206.228C784.223 205.41 784.11 204.586 783.82 203.818C783.53 203.049 783.071 202.356 782.476 201.79Z" fill="#E88F00"/>
<path d="M763.584 64.2349C759.866 48.6199 760.484 33.2409 766.852 18.1729C766.919 17.2407 767.353 16.3731 768.059 15.7606C768.765 15.1481 769.685 14.8408 770.618 14.9059L805.404 17.3739C806.336 17.4411 807.204 17.8753 807.816 18.5813C808.429 19.2873 808.736 20.2075 808.671 21.1399L805.4 67.1989C805.333 68.1312 804.898 68.9988 804.192 69.6113C803.486 70.2237 802.566 70.5311 801.634 70.4659L766.851 67.9989C765.919 67.9318 765.052 67.4979 764.439 66.7923C763.827 66.0867 763.519 65.167 763.584 64.2349Z" fill="#F2F2F2"/>
<path d="M767.24 50.511C764.265 42.816 766.167 32.234 769.34 20.898C769.403 20.0248 769.809 19.2122 770.471 18.6385C771.132 18.0649 771.994 17.777 772.867 17.838L802.767 19.959C803.64 20.022 804.452 20.4287 805.026 21.0899C805.6 21.7511 805.888 22.6128 805.827 23.486L802.918 64.475C802.855 65.3482 802.449 66.1608 801.787 66.7345C801.126 67.3082 800.264 67.5961 799.391 67.535L780.871 66.221C776.982 65.9413 773.362 64.1301 770.807 61.1848C768.251 58.2396 766.969 54.4009 767.24 50.511Z" fill="white"/>
<path d="M785.627 29.885C784.881 29.672 784.097 29.6228 783.33 29.7408C782.563 29.8588 781.831 30.1411 781.183 30.5685C780.536 30.9958 779.988 31.5581 779.578 32.2169C779.168 32.8756 778.905 33.6152 778.807 34.385C778.413 37.947 782.244 40.758 785.561 39.79C785.829 39.7063 786.054 39.5217 786.189 39.2751C786.323 39.0285 786.357 38.7394 786.282 38.4686C786.208 38.1978 786.031 37.9665 785.789 37.8237C785.547 37.6809 785.259 37.6376 784.986 37.703C782.555 38.413 779.962 35.787 781.359 33.441C781.676 32.8745 782.159 32.418 782.742 32.1322C783.325 31.8464 783.982 31.7449 784.624 31.841C785.169 31.992 785.671 32.2687 786.09 32.6489C786.509 33.029 786.833 33.502 787.036 34.03C788.229 36.718 786.811 39.447 784.936 41.401C783.864 42.515 782.607 43.381 781.452 44.401C780.89 44.8253 780.424 45.3625 780.083 45.9781C779.741 46.5937 779.533 47.2739 779.471 47.975C779.501 48.7632 779.747 49.5281 780.18 50.187C780.614 50.8458 781.22 51.3735 781.932 51.713C783.777 52.662 785.876 52.36 787.838 52.044C789.209 51.823 788.627 49.738 787.263 49.957C785.546 50.233 782.976 50.652 781.888 48.857C780.956 47.324 782.876 45.978 783.921 45.163C786.549 43.114 789.207 40.463 789.602 36.983C789.922 34.134 788.472 30.872 785.627 29.885Z" fill="#FFCC00"/>
<path d="M506.666 140.453C518.8 136.682 531.79 140.76 543.991 137.28C546.797 136.512 549.449 135.266 551.832 133.597C553.864 132.056 555.772 130.358 557.539 128.518C561.209 124.888 565.195 121.076 570.709 121.118C577.97 121.173 583.545 126.567 588.385 131.33C589.069 132.003 590.123 130.95 589.439 130.276C584.992 125.9 580.187 121.283 573.856 119.976C571.016 119.346 568.053 119.592 565.356 120.682C563.016 121.745 560.879 123.206 559.039 125.001C557.09 126.789 555.292 128.735 553.316 130.495C551.253 132.371 548.877 133.871 546.296 134.926C540.703 137.153 534.568 137.426 528.619 137.357C521.151 137.276 513.506 136.767 506.271 139.015C505.358 139.299 505.748 140.737 506.671 140.452L506.666 140.453Z" fill="#3F3D56"/>
<path d="M591.051 121.288L594.781 127.863L596.581 131.045C596.902 131.61 597.231 132.172 597.544 132.745C597.736 133.095 598.155 133.727 597.755 134.059C597.404 134.231 597.008 134.293 596.621 134.236C595.964 134.236 595.306 134.223 594.648 134.216L590.948 134.179L583.303 134.102C583.106 134.102 582.916 134.181 582.776 134.32C582.637 134.46 582.558 134.649 582.558 134.847C582.558 135.045 582.637 135.234 582.776 135.374C582.916 135.514 583.106 135.592 583.303 135.592C587.741 135.637 592.182 135.731 596.62 135.727C597.395 135.8 598.17 135.587 598.798 135.127C599.107 134.821 599.311 134.426 599.383 133.998C599.455 133.569 599.39 133.129 599.198 132.739C598.761 131.784 598.257 130.861 597.692 129.976L596.068 127.112L592.338 120.537C592.233 120.378 592.071 120.265 591.885 120.222C591.699 120.179 591.504 120.208 591.339 120.305C591.175 120.401 591.053 120.557 591 120.74C590.946 120.923 590.965 121.119 591.052 121.289L591.051 121.288Z" fill="#3F3D56"/>
<path d="M688.81 121.853C694.654 113.931 704.633 110.515 710.652 102.743C712.05 100.975 713.132 98.9791 713.852 96.843C714.413 94.9483 714.825 93.0123 715.084 91.053C715.709 87.103 716.448 82.894 719.909 80.39C724.467 77.09 730.422 77.9 735.629 78.652C735.78 78.6751 735.935 78.6371 736.058 78.5465C736.181 78.4558 736.263 78.3198 736.286 78.1685C736.309 78.0172 736.271 77.8629 736.181 77.7396C736.09 77.6163 735.954 77.5341 735.803 77.511C731.019 76.82 725.903 76.1431 721.35 78.2331C719.288 79.1432 717.551 80.6571 716.368 82.575C715.395 84.314 714.731 86.2089 714.407 88.175C714.007 90.186 713.782 92.226 713.356 94.231C712.929 96.3491 712.134 98.3759 711.007 100.219C708.538 104.176 704.831 107.159 701.088 109.849C696.388 113.225 691.388 116.417 687.899 121.14C687.459 121.74 688.363 122.455 688.806 121.855L688.81 121.853Z" fill="#3F3D56"/>
<path d="M731.641 69.519L738.541 72.6069L741.88 74.101C742.473 74.367 743.071 74.6239 743.661 74.9009C744.023 75.0699 744.735 75.3299 744.609 75.8349C744.523 76.1789 744.063 76.4549 743.8 76.6489C743.271 77.0399 742.732 77.4169 742.2 77.8019L739.2 79.963L732.995 84.4289C732.839 84.5471 732.735 84.7221 732.707 84.9159C732.679 85.1097 732.728 85.3067 732.845 85.4645C732.961 85.6222 733.134 85.7279 733.327 85.7587C733.521 85.7894 733.719 85.7428 733.878 85.6289C737.478 83.0359 741.114 80.4809 744.687 77.8489C745.354 77.4496 745.852 76.82 746.087 76.0789C746.153 75.6493 746.082 75.2097 745.885 74.8224C745.688 74.4352 745.373 74.1198 744.987 73.9209C744.069 73.4108 743.117 72.9651 742.137 72.5869L739.137 71.2419L732.237 68.1539C732.058 68.0867 731.859 68.091 731.683 68.166C731.507 68.2409 731.366 68.3808 731.29 68.5566C731.214 68.7324 731.209 68.9307 731.275 69.1104C731.341 69.2901 731.474 69.4375 731.646 69.5219L731.641 69.519Z" fill="#3F3D56"/>
<path d="M809.779 93.044H759.979C759.429 93.0457 758.9 92.8288 758.51 92.4408C758.119 92.0529 757.899 91.5258 757.897 90.9755C757.896 90.4252 758.113 89.8967 758.501 89.5064C758.889 89.116 759.416 88.8957 759.966 88.894H809.774C810.046 88.8931 810.316 88.946 810.569 89.0494C810.821 89.1529 811.05 89.3051 811.243 89.4971C811.436 89.6892 811.59 89.9175 811.695 90.1689C811.8 90.4203 811.855 90.69 811.855 90.9625C811.856 91.235 811.804 91.505 811.7 91.7571C811.597 92.0091 811.444 92.2384 811.252 92.4317C811.06 92.6249 810.832 92.7785 810.581 92.8836C810.329 92.9886 810.059 93.0431 809.787 93.044H809.779Z" fill="#FFCC00"/>
<path d="M687.209 182.764C693.778 191.67 704.996 195.509 711.762 204.246C713.334 206.232 714.552 208.475 715.362 210.875C715.993 213.005 716.456 215.181 716.747 217.383C717.447 221.824 718.28 226.554 722.171 229.369C727.295 233.076 733.989 232.169 739.842 231.322C740.012 231.295 740.186 231.338 740.325 231.439C740.464 231.541 740.557 231.693 740.584 231.863C740.61 232.034 740.568 232.207 740.466 232.346C740.365 232.485 740.212 232.578 740.042 232.605C734.664 233.382 728.91 234.142 723.795 231.793C721.478 230.77 719.525 229.068 718.195 226.912C717.103 224.959 716.359 222.831 715.995 220.623C715.549 218.363 715.295 216.07 714.813 213.816C714.334 211.435 713.44 209.157 712.173 207.085C709.397 202.637 705.231 199.285 701.023 196.26C695.741 192.46 690.114 188.877 686.197 183.568C685.703 182.898 686.718 182.089 687.216 182.768L687.209 182.764Z" fill="#3F3D56"/>
<path d="M735.933 240.687L742.833 237.599L746.172 236.105C746.765 235.839 747.363 235.582 747.953 235.305C748.315 235.136 749.027 234.876 748.901 234.371C748.815 234.027 748.355 233.751 748.092 233.557C747.563 233.166 747.024 232.789 746.492 232.404L743.492 230.243L737.287 225.777C737.131 225.659 737.027 225.484 736.999 225.29C736.971 225.096 737.02 224.899 737.137 224.741C737.253 224.584 737.426 224.478 737.619 224.447C737.813 224.416 738.011 224.463 738.17 224.577C741.77 227.17 745.406 229.725 748.979 232.357C749.646 232.756 750.144 233.386 750.379 234.127C750.445 234.557 750.374 234.996 750.177 235.383C749.98 235.771 749.665 236.086 749.279 236.285C748.361 236.795 747.409 237.241 746.429 237.619L743.429 238.964L736.529 242.052C736.35 242.119 736.151 242.115 735.975 242.04C735.799 241.965 735.658 241.825 735.582 241.649C735.506 241.474 735.501 241.275 735.567 241.096C735.633 240.916 735.766 240.768 735.938 240.684L735.933 240.687Z" fill="#3F3D56"/>
<path d="M801.001 237.022H759.633C759.183 237.013 758.754 236.829 758.438 236.508C758.122 236.187 757.944 235.756 757.942 235.306C757.94 234.856 758.115 234.423 758.428 234.099C758.741 233.776 759.168 233.588 759.618 233.575H801.001C801.451 233.584 801.88 233.768 802.196 234.089C802.512 234.409 802.69 234.841 802.692 235.291C802.694 235.741 802.519 236.174 802.206 236.498C801.893 236.821 801.466 237.009 801.016 237.022H801.001Z" fill="#FFCC00"/>
<path d="M808.959 32.7611C817.204 34.3639 825.187 28.979 826.79 20.7336C828.393 12.4882 823.008 4.50475 814.763 2.90201C806.517 1.29928 798.534 6.68419 796.931 14.9296C795.328 23.1749 800.713 31.1584 808.959 32.7611Z" fill="#FFCC00"/>
<path d="M809.274 23.2384C808.938 23.1739 808.632 23.0018 808.403 22.7481L808.392 22.7329L805.403 19.3615C805.146 19.0433 805.022 18.6384 805.056 18.231C805.09 17.8236 805.281 17.4451 805.587 17.1744C805.893 16.9036 806.292 16.7615 806.701 16.7776C807.109 16.7936 807.496 16.9666 807.78 17.2606L809.714 19.4447L816.446 13.4827C816.762 13.2037 817.175 13.0612 817.595 13.0868C818.015 13.1123 818.408 13.3037 818.687 13.6189C818.966 13.9344 819.109 14.3477 819.084 14.7678C819.058 15.1879 818.867 15.5808 818.552 15.8603L810.634 22.8702C810.451 23.0315 810.234 23.1484 809.998 23.212C809.763 23.2755 809.516 23.2841 809.276 23.2369L809.274 23.2384Z" fill="white"/>
<path d="M807.464 199.121C816.303 200.839 824.862 195.066 826.58 186.227C828.298 177.387 822.525 168.828 813.686 167.11C804.846 165.392 796.288 171.165 794.569 180.004C792.851 188.844 798.624 197.403 807.464 199.121Z" fill="#FFCC00"/>
<path d="M807.803 188.912C807.443 188.843 807.115 188.658 806.869 188.386L806.855 188.37L803.651 184.762C803.352 184.424 803.2 183.981 803.227 183.53C803.255 183.08 803.46 182.659 803.798 182.36C804.136 182.061 804.579 181.908 805.03 181.936C805.48 181.963 805.901 182.169 806.2 182.507L808.274 184.845L815.491 178.454C815.659 178.305 815.853 178.191 816.065 178.118C816.276 178.045 816.5 178.014 816.723 178.028C816.947 178.041 817.165 178.099 817.366 178.197C817.567 178.295 817.747 178.432 817.895 178.599L817.85 178.641L817.896 178.598C818.045 178.765 818.159 178.96 818.232 179.171C818.305 179.383 818.335 179.606 818.322 179.83C818.308 180.053 818.251 180.271 818.153 180.472C818.054 180.673 817.918 180.853 817.75 181.001L809.259 188.519C809.063 188.692 808.83 188.818 808.578 188.886C808.325 188.954 808.059 188.963 807.803 188.912Z" fill="white"/>
<path d="M650.182 144.908C659.568 146.733 668.655 140.603 670.479 131.218C672.304 121.832 666.174 112.745 656.789 110.92C647.403 109.096 638.316 115.225 636.491 124.611C634.667 133.996 640.797 143.084 650.182 144.908Z" fill="#FFCC00"/>
<path d="M650.541 134.07C650.159 133.996 649.811 133.8 649.549 133.512L649.534 133.493L646.133 129.662C645.815 129.303 645.653 128.833 645.682 128.354C645.711 127.875 645.929 127.428 646.288 127.11C646.647 126.792 647.118 126.63 647.596 126.659C648.075 126.688 648.523 126.906 648.84 127.265L651.042 129.752L658.705 122.965C659.064 122.649 659.533 122.487 660.01 122.516C660.487 122.545 660.934 122.761 661.252 123.119C661.569 123.478 661.732 123.948 661.702 124.427C661.673 124.905 661.455 125.352 661.097 125.67L652.09 133.651C651.881 133.835 651.633 133.968 651.365 134.04C651.097 134.113 650.816 134.123 650.543 134.069L650.541 134.07Z" fill="white"/>
</svg>
